<svg width="26" height="27" viewBox="0 0 26 27" fill="none" xmlns="http://www.w3.org/2000/svg">
<g clip-path="url(#clip0_133_530)">
<path d="M13 0.741821C13.217 0.741821 13.3788 0.810025 13.5264 0.957642C13.6738 1.10521 13.7422 1.26709 13.7422 1.48401C13.7421 1.58787 13.7217 1.69074 13.6768 1.79749L13.3262 2.63049L14.2197 2.76233C15.9772 3.02132 17.3603 3.74446 18.4121 4.9176C19.4871 6.11673 19.9901 7.36983 19.9902 8.69299C19.9902 10.1173 20.0901 11.4576 20.292 12.7106C20.4918 13.9506 20.7512 15.0262 21.0752 15.9293C21.3951 16.821 21.7877 17.6561 22.2529 18.4332C22.7081 19.1936 23.1587 19.8312 23.6074 20.3346C23.9615 20.7319 24.3472 21.1126 24.7617 21.4791C24.7121 21.6854 24.6074 21.8717 24.4316 22.0475C24.1775 22.3016 23.9025 22.4127 23.5742 22.4127H16.1455V23.1129C16.1455 23.9885 15.8434 24.7167 15.2236 25.3365C14.7702 25.79 14.2586 26.0727 13.6738 26.192C13.8915 25.9744 13.9404 25.7042 13.9404 25.5162C13.9404 25.3282 13.8924 25.059 13.6748 24.8414C13.4572 24.6239 13.188 24.5758 13 24.5758C12.5989 24.5758 12.2677 24.44 11.9707 24.1432C11.6736 23.8461 11.5371 23.5142 11.5371 23.1129C11.5371 22.9249 11.489 22.6556 11.2715 22.4381C11.0539 22.2206 10.7846 22.1725 10.5967 22.1725C10.4087 22.1725 10.1395 22.2206 9.92188 22.4381C9.8972 22.4628 9.87497 22.4885 9.85449 22.5143V22.4127H2.42578C2.09755 22.4127 1.82251 22.3016 1.56836 22.0475C1.39257 21.8717 1.2869 21.6855 1.2373 21.4791C1.65205 21.1125 2.03831 20.7321 2.39258 20.3346C2.84126 19.8312 3.29191 19.1936 3.74707 18.4332C4.21227 17.6561 4.60485 16.821 4.9248 15.9293C5.24883 15.0262 5.50815 13.9506 5.70801 12.7106C5.90994 11.4576 6.00977 10.1173 6.00977 8.69299C6.00988 7.36984 6.51288 6.11673 7.58789 4.9176C8.63967 3.74447 10.0228 3.02133 11.7803 2.76233L12.6738 2.63049L12.3232 1.79749C12.2783 1.69074 12.2579 1.58786 12.2578 1.48401C12.2578 1.2671 12.3262 1.1052 12.4736 0.957642C12.6212 0.810027 12.783 0.741825 13 0.741821Z" fill="white" stroke="black" stroke-width="1.4"/>
</g>
<defs>
<clipPath id="clip0_133_530">
<rect width="25" height="27" fill="white" transform="translate(0.5)"/>
</clipPath>
</defs>
</svg>
