<svg width="35" height="35" viewBox="0 0 35 35" fill="none" xmlns="http://www.w3.org/2000/svg">
<path d="M17.5488 7.07922C19.5368 4.85668 22.6755 4.3732 25.21 5.08704L25.4795 5.16809L25.7354 5.255C31.0428 7.14189 32.7849 13.4436 31.2148 18.3566C29.9685 22.3193 27.1849 25.3014 24.4541 27.2814C23.0853 28.2738 21.7145 29.0263 20.5273 29.5333C19.3657 30.0294 18.3031 30.3234 17.5713 30.3234C16.8422 30.3233 15.7868 30.0366 14.6299 29.547C13.448 29.0468 12.0829 28.3019 10.7178 27.3146C8.07848 25.4056 5.38463 22.549 4.0498 18.7335L3.9248 18.3615C2.32641 13.3711 4.13863 6.94182 9.64941 5.16809V5.16907C12.256 4.32806 15.4427 4.87059 17.5488 7.07922Z" fill="white" stroke="black" stroke-width="1.5" stroke-linecap="round" stroke-linejoin="round"/>
<path d="M22.9434 10.4696C23.9872 10.5768 24.8721 11.0525 25.4785 11.8192C26.08 12.5798 26.3687 13.5764 26.332 14.6718C26.3215 14.9862 26.1162 15.2609 25.8174 15.3593C25.5186 15.4576 25.1904 15.3588 24.9951 15.1122L22.2793 11.6815C22.0922 11.4452 22.065 11.1196 22.21 10.8553C22.3549 10.5912 22.6436 10.439 22.9434 10.4696Z" fill="white" stroke="black" stroke-width="1.5" stroke-linecap="round" stroke-linejoin="round"/>
</svg>
